<?xml version="1.0" encoding="UTF-8" standalone="no"?>
<!-- Created with Inkscape (http://www.inkscape.org/) -->

<svg
   version="1.1"
   id="svg2"
   xml:space="preserve"
   width="604.71997"
   height="188"
   viewBox="0 0 604.71997 188"
   sodipodi:docname="KINGS ACADEMY LANDSCAPE LOGO.eps"
   xmlns:inkscape="http://www.inkscape.org/namespaces/inkscape"
   xmlns:sodipodi="http://sodipodi.sourceforge.net/DTD/sodipodi-0.dtd"
   xmlns="http://www.w3.org/2000/svg"
   xmlns:svg="http://www.w3.org/2000/svg"><defs
     id="defs6" /><sodipodi:namedview
     id="namedview4"
     pagecolor="#ffffff"
     bordercolor="#666666"
     borderopacity="1.0"
     inkscape:pageshadow="2"
     inkscape:pageopacity="0.0"
     inkscape:pagecheckerboard="0" /><g
     id="g8"
     inkscape:groupmode="layer"
     inkscape:label="ink_ext_XXXXXX"
     transform="matrix(1.3333333,0,0,-1.3333333,0,188)"><g
       id="g10"
       transform="scale(0.1)"><path
         d="M 1983.27,271.781 H 4223.28 V 617.922 H 1983.27 V 271.781"
         style="fill:#b2db18;fill-opacity:1;fill-rule:nonzero;stroke:none"
         id="path12" /><path
         d="m 2177.85,494.68 -27.24,-66.535 h 54.51 z m 62.17,-152.418 -18.76,46.027 h -86.78 l -18.77,-46.027 h -46.03 l 87.96,206.664 h 41.63 l 87.93,-206.664 h -47.18"
         style="fill:#231f20;fill-opacity:1;fill-rule:nonzero;stroke:none"
         id="path14" /><path
         d="m 2489.67,338.738 c -60.4,0 -105.24,46.621 -105.24,105.539 v 0.586 c 0,58.328 43.96,106.106 106.98,106.106 38.71,0 61.88,-12.883 80.93,-31.645 l -28.75,-33.125 c -15.8,14.367 -31.93,23.137 -52.47,23.137 -34.57,0 -59.51,-28.723 -59.51,-63.875 v -0.598 c 0,-35.183 24.35,-64.492 59.51,-64.492 23.46,0 37.81,9.367 53.94,24.008 l 28.72,-29.008 c -21.09,-22.57 -44.55,-36.633 -84.11,-36.633"
         style="fill:#231f20;fill-opacity:1;fill-rule:nonzero;stroke:none"
         id="path16" /><path
         d="m 2788.29,494.68 -27.25,-66.535 h 54.51 z m 62.16,-152.418 -18.77,46.027 h -86.77 l -18.76,-46.027 h -46.04 l 87.96,206.664 h 41.63 l 87.93,-206.664 h -47.18"
         style="fill:#231f20;fill-opacity:1;fill-rule:nonzero;stroke:none"
         id="path18" /><path
         d="m 3159.05,444.863 c 0,36.348 -24.93,61.848 -61.87,61.848 h -34.9 V 383 h 34.9 c 36.94,0 61.87,24.941 61.87,61.277 z m -61.87,-102.601 h -80.05 v 205.187 h 80.05 c 64.5,0 109.06,-44.258 109.06,-101.988 v -0.598 c 0,-57.761 -44.56,-102.601 -109.06,-102.601"
         style="fill:#231f20;fill-opacity:1;fill-rule:nonzero;stroke:none"
         id="path20" /><path
         d="m 3334.21,342.262 v 205.187 h 154.8 v -40.152 h -109.94 v -41.633 h 96.77 V 425.52 h -96.77 v -43.122 h 111.41 v -40.136 h -156.27"
         style="fill:#231f20;fill-opacity:1;fill-rule:nonzero;stroke:none"
         id="path22" /><path
         d="m 3778.85,342.262 v 133.949 l -57.76,-87.633 h -1.19 l -57.14,86.781 V 342.262 h -44.29 v 205.187 h 48.66 l 53.96,-86.773 53.94,86.773 h 48.67 V 342.262 h -44.85"
         style="fill:#231f20;fill-opacity:1;fill-rule:nonzero;stroke:none"
         id="path24" /><path
         d="m 4063.7,424.031 v -81.769 h -45.15 v 80.883 l -78.86,124.304 h 52.77 l 48.96,-82.371 49.84,82.371 h 51.29 L 4063.7,424.031"
         style="fill:#231f20;fill-opacity:1;fill-rule:nonzero;stroke:none"
         id="path26" /><path
         d="m 340.156,617.91 h 95.93 V 477.473 L 555.25,617.91 H 668.98 L 537.945,469.063 673.422,271.781 H 558.219 L 471.191,400.328 436.086,361.27 v -89.489 h -95.93 V 617.91"
         style="fill:#231f20;fill-opacity:1;fill-rule:nonzero;stroke:none"
         id="path28" /><path
         d="m 703.098,617.91 h 96.418 V 271.781 H 703.098 V 617.91"
         style="fill:#231f20;fill-opacity:1;fill-rule:nonzero;stroke:none"
         id="path30" /><path
         d="m 862.797,617.91 h 89.699 L 1095.2,434.949 V 617.91 h 94.44 V 271.781 h -84.23 L 957.246,461.66 V 271.781 H 862.797 V 617.91"
         style="fill:#231f20;fill-opacity:1;fill-rule:nonzero;stroke:none"
         id="path32" /><path
         d="m 1427.47,264.852 c -27.03,0 -52,4.378 -74.9,13.097 -22.92,8.742 -42.78,21.012 -59.59,36.84 -16.81,15.832 -30,34.691 -39.55,56.633 -9.57,21.906 -14.35,46.058 -14.35,72.433 v 0.981 c 0,25.047 4.68,48.543 14.03,70.469 9.35,21.914 22.22,41.035 38.62,57.363 16.39,16.309 36.04,29.078 58.91,38.316 22.87,9.219 47.67,13.852 74.37,13.852 30.65,0 57.11,-4.453 79.35,-13.371 22.26,-8.887 42.6,-21.25 61.08,-37.078 l -56.38,-67.739 c -12.53,10.547 -25.3,18.618 -38.32,24.231 -13.02,5.598 -28.11,8.398 -45.24,8.398 -12.53,0 -24.15,-2.461 -34.86,-7.414 -10.72,-4.937 -20.02,-11.695 -27.94,-20.269 -7.91,-8.574 -14.18,-18.625 -18.79,-30.156 -4.62,-11.555 -6.93,-23.911 -6.93,-37.083 v -0.996 c 0,-13.847 2.32,-26.699 6.95,-38.57 4.63,-11.867 11.17,-22.008 19.6,-30.41 8.44,-8.399 18.35,-15.008 29.77,-19.777 11.4,-4.782 24.05,-7.18 37.95,-7.18 22.49,0 41.01,4.777 55.56,14.348 v 42.031 h -68.23 v 70.215 h 159.21 V 318.262 c -18.46,-15.172 -40.22,-27.864 -65.27,-38.071 -25.05,-10.211 -53.4,-15.339 -85.05,-15.339"
         style="fill:#231f20;fill-opacity:1;fill-rule:nonzero;stroke:none"
         id="path34" /><path
         d="m 1767.17,265.852 c -30.99,0 -60.41,4.796 -88.27,14.418 -27.85,9.621 -52.49,24.05 -73.91,43.281 l 53.39,63.929 c 34.61,-27.691 72.03,-41.531 112.25,-41.531 12.85,0 22.66,2.063 29.42,6.172 6.75,4.098 10.14,9.957 10.14,17.527 v 0.973 c 0,3.617 -0.83,6.84 -2.48,9.629 -1.65,2.801 -4.69,5.512 -9.15,8.141 -4.45,2.629 -10.38,5.179 -17.8,7.648 -7.41,2.481 -17.05,5.02 -28.93,7.66 -18.46,4.281 -35.59,8.969 -51.42,14.067 -15.81,5.093 -29.58,11.675 -41.28,19.734 -11.7,8.066 -20.95,18.105 -27.69,30.117 -6.77,12 -10.14,26.903 -10.14,44.668 v 0.977 c 0,16.133 3.04,30.949 9.14,44.433 6.11,13.496 15,25.164 26.71,35.039 11.7,9.871 25.79,17.532 42.28,22.95 16.47,5.437 35.1,8.156 55.86,8.156 29.68,0 56.13,-3.906 79.38,-11.699 23.23,-7.793 44.25,-19.328 63.03,-34.575 l -47.96,-67.949 c -15.82,11.203 -32.06,19.692 -48.7,25.461 -16.65,5.762 -32.72,8.652 -48.21,8.652 -11.54,0 -20.2,-2.136 -25.96,-6.425 -5.78,-4.278 -8.66,-9.539 -8.66,-15.789 v -0.981 c 0,-3.953 0.91,-7.41 2.72,-10.359 1.81,-2.981 4.95,-5.684 9.4,-8.156 4.45,-2.477 10.55,-4.93 18.29,-7.403 7.74,-2.469 17.55,-5.015 29.43,-7.652 19.77,-4.277 37.65,-9.289 53.64,-15.051 15.99,-5.754 29.58,-12.754 40.8,-20.976 11.2,-8.223 19.78,-18.184 25.71,-29.864 5.94,-11.683 8.9,-25.586 8.9,-41.703 v -0.992 c 0,-17.758 -3.38,-33.578 -10.13,-47.379 -6.76,-13.82 -16.24,-25.59 -28.43,-35.301 -12.21,-9.699 -26.87,-17.109 -44.02,-22.199 -17.13,-5.109 -36.26,-7.648 -57.35,-7.648"
         style="fill:#231f20;fill-opacity:1;fill-rule:nonzero;stroke:none"
         id="path36" /><path
         d="M 1012.6,865.453 V 968.516 H 919.004 V 703.43 h 63.93 l 29.666,29.668 279.69,279.692 v 132.35 L 1012.6,865.453"
         style="fill:#231f20;fill-opacity:1;fill-rule:nonzero;stroke:none"
         id="path38" /><path
         d="m 1167.94,863.145 -66.18,-66.18 94.13,-94.137 h 132.37 l -160.32,160.317"
         style="fill:#231f20;fill-opacity:1;fill-rule:nonzero;stroke:none"
         id="path40" /><path
         d="m 1101.53,1145.14 -94.72,-94.71 -87.806,87.8 V 984.805 h 25.422 128.014 36.41 l 77.03,76.055 -84.35,84.28"
         style="fill:#b2db18;fill-opacity:1;fill-rule:nonzero;stroke:none"
         id="path42" /></g></g></svg>
