<?xml version="1.0" encoding="UTF-8"?>
<svg id="Layer_1" data-name="Layer 1" xmlns="http://www.w3.org/2000/svg" viewBox="0 0 759.72 218.02">
  <defs>
    <style>
      .cls-1, .cls-2, .cls-3 {
        fill: #fff;
      }

      .cls-4 {
        fill: #e5a100;
      }

      .cls-2 {
        stroke-width: 1.42px;
      }

      .cls-2, .cls-3, .cls-5 {
        stroke: #fff;
        stroke-miterlimit: 10;
      }

      .cls-6 {
        fill: #49155c;
      }

      .cls-5 {
        fill: none;
        stroke-width: 2.3px;
      }
    </style>
  </defs>
  <rect class="cls-6" width="759.72" height="218.02" rx="27.81" ry="27.81"/>
  <path class="cls-4" d="M338.5,79.82h-7.92l-9.33-27.05-9.33,27.05h-7.92l-14.12-41.65h9.75l8.57,28,9.28-28.12h7.8l9.27,28.12,8.57-28h9.51l-14.12,41.65Z"/>
  <path class="cls-4" d="M383.98,66.82h-22.04c.89,4.08,3.72,6.2,7.74,6.2,3.01,0,5.2-.94,7.68-3.25l5.14,4.55c-2.95,3.66-7.21,5.91-12.94,5.91-9.51,0-16.54-6.68-16.54-16.37v-.12c0-9.04,6.44-16.48,15.66-16.48,10.57,0,15.42,8.21,15.42,17.19v.12c0,.89-.06,1.42-.12,2.24Zm-15.3-12.35c-3.72,0-6.14,2.66-6.85,6.73h13.53c-.53-4.02-2.9-6.73-6.68-6.73Z"/>
  <path class="cls-4" d="M401.88,80.12c-4.43,0-9.39-1.48-13.59-4.78l3.84-5.91c3.43,2.48,7.03,3.78,9.98,3.78,2.6,0,3.78-.95,3.78-2.36v-.12c0-1.95-3.07-2.6-6.56-3.66-4.43-1.3-9.45-3.37-9.45-9.51v-.12c0-6.44,5.2-10.04,11.58-10.04,4.02,0,8.39,1.36,11.81,3.66l-3.43,6.2c-3.13-1.83-6.26-2.95-8.57-2.95-2.19,0-3.31,.95-3.31,2.19v.12c0,1.77,3.01,2.6,6.44,3.78,4.43,1.48,9.57,3.6,9.57,9.39v.12c0,7.03-5.26,10.22-12.11,10.22Z"/>
  <path class="cls-4" d="M430.94,80.12c-4.43,0-9.39-1.48-13.59-4.78l3.84-5.91c3.43,2.48,7.03,3.78,9.98,3.78,2.6,0,3.78-.95,3.78-2.36v-.12c0-1.95-3.07-2.6-6.56-3.66-4.43-1.3-9.45-3.37-9.45-9.51v-.12c0-6.44,5.2-10.04,11.58-10.04,4.02,0,8.39,1.36,11.81,3.66l-3.43,6.2c-3.13-1.83-6.26-2.95-8.57-2.95-2.19,0-3.31,.95-3.31,2.19v.12c0,1.77,3.01,2.6,6.44,3.78,4.43,1.48,9.57,3.6,9.57,9.39v.12c0,7.03-5.26,10.22-12.11,10.22Z"/>
  <path class="cls-4" d="M478.9,66.82h-22.04c.89,4.08,3.72,6.2,7.74,6.2,3.01,0,5.2-.94,7.68-3.25l5.14,4.55c-2.95,3.66-7.21,5.91-12.94,5.91-9.51,0-16.54-6.68-16.54-16.37v-.12c0-9.04,6.44-16.48,15.66-16.48,10.57,0,15.42,8.21,15.42,17.19v.12c0,.89-.06,1.42-.12,2.24Zm-15.3-12.35c-3.72,0-6.14,2.66-6.85,6.73h13.53c-.53-4.02-2.9-6.73-6.68-6.73Z"/>
  <path class="cls-4" d="M503.42,79.52l-6.38-9.87-6.38,9.87h-9.39l11.11-16.07-10.69-15.59h9.63l5.91,9.21,5.97-9.21h9.39l-10.69,15.42,11.17,16.25h-9.63Z"/>
  <path class="cls-2" d="M294.26,93.34h2.01v39.52h24.93v1.83h-26.94v-41.35Z"/>
  <path class="cls-2" d="M326.27,119.8v-.12c0-8.74,6.02-15.48,14.24-15.48,8.98,0,13.64,7.68,13.64,15.65v.65h-25.81c.35,8.09,6.08,13.11,12.76,13.11,4.61,0,8.33-2.42,10.69-5.49l1.42,1.12c-2.72,3.54-6.73,6.14-12.17,6.14-8.03,0-14.77-6.09-14.77-15.6Zm25.82-1c-.3-6.5-4.25-12.82-11.7-12.82-6.73,0-11.7,5.49-12.05,12.82h23.75Z"/>
  <path class="cls-2" d="M360.29,126.3v-.12c0-6.2,5.61-9.57,13.17-9.57,4.14,0,7.74,.71,10.63,1.65v-2.01c0-6.73-4.02-10.04-10.63-10.04-3.66,0-6.73,1-9.69,2.48l-.71-1.65c3.31-1.59,6.56-2.6,10.52-2.6s7.26,1.06,9.45,3.25c1.89,1.95,2.95,4.78,2.95,8.45v18.55h-1.89v-6.2c-1.54,3.25-5.67,6.91-12.52,6.91-5.73,0-11.28-3.07-11.28-9.1Zm23.87-2.6v-3.66c-2.89-.94-6.32-1.65-10.75-1.65-6.56,0-11.11,2.78-11.11,7.68v.12c0,4.9,4.43,7.44,9.39,7.44,7.21,0,12.47-4.61,12.47-9.92Z"/>
  <path class="cls-2" d="M396.38,104.91h1.89v9.1c1.77-5.08,6.32-9.86,12.64-9.69v1.95h-.3c-7.21,0-12.35,6.97-12.35,14.3v14.12h-1.89v-29.77Z"/>
  <path class="cls-2" d="M417.71,104.91h1.89v7.09c1.36-3.54,5.08-7.8,11.46-7.8,7.86,0,12.29,5.32,12.29,13.05v17.43h-1.89v-17.13c0-6.91-3.72-11.58-10.63-11.58-6.26,0-11.23,5.14-11.23,11.93v16.78h-1.89v-29.77Z"/>
  <path class="cls-2" d="M453.79,93.1h2.54v3.6h-2.54v-3.6Zm.29,11.81h1.95v29.77h-1.95v-29.77Z"/>
  <path class="cls-2" d="M467.38,104.91h1.89v7.09c1.36-3.54,5.08-7.8,11.46-7.8,7.86,0,12.29,5.32,12.29,13.05v17.43h-1.89v-17.13c0-6.91-3.72-11.58-10.63-11.58-6.26,0-11.23,5.14-11.23,11.93v16.78h-1.89v-29.77Z"/>
  <path class="cls-2" d="M502.82,139.71l1.12-1.53c3.72,2.83,7.86,4.31,12.47,4.31,7.5,0,12.58-4.25,12.58-12.58v-5.38c-2.3,4.55-6.97,7.97-13,7.97-7.74,0-14.53-6.02-14.53-14.06v-.12c0-8.09,6.79-14.12,14.53-14.12,6.02,0,10.69,3.43,13,7.86v-7.15h1.95v25.23c0,4.37-1.42,7.86-3.84,10.28-2.54,2.54-6.32,3.9-10.69,3.9-5.02,0-9.51-1.53-13.59-4.61Zm26.35-21.27v-.12c0-6.91-6.09-12.29-13-12.29s-12.64,5.2-12.64,12.23v.12c0,6.91,5.73,12.29,12.64,12.29s13-5.32,13-12.23Z"/>
  <path class="cls-2" d="M570.39,95.17h-14.71v-1.83h31.49v1.83h-14.77v39.52h-2.01v-39.52Z"/>
  <path class="cls-2" d="M589.29,104.91h1.89v9.1c1.77-5.08,6.32-9.86,12.64-9.69v1.95h-.3c-7.21,0-12.35,6.97-12.35,14.3v14.12h-1.89v-29.77Z"/>
  <path class="cls-2" d="M610.02,122.34v-17.43h1.89v17.13c0,6.91,3.72,11.58,10.63,11.58,6.26,0,11.22-5.14,11.22-11.93v-16.78h1.89v29.77h-1.89v-7.09c-1.36,3.54-5.08,7.8-11.46,7.8-7.86,0-12.29-5.32-12.29-13.06Z"/>
  <path class="cls-2" d="M643.87,130.85l1.12-1.48c3.31,2.6,7.27,4.08,11.11,4.08,4.78,0,8.51-2.54,8.51-6.2v-.12c0-4.19-4.49-5.49-9.04-6.73-5.55-1.59-10.34-3.13-10.34-8.09v-.12c0-4.43,4.08-7.8,10.16-7.8,3.43,0,7.32,1.18,10.45,3.31l-1.06,1.59c-2.84-2.01-6.32-3.13-9.45-3.13-4.9,0-8.15,2.54-8.15,5.85v.12c0,3.72,4.19,5.08,9.04,6.44,5.43,1.48,10.34,3.19,10.34,8.39v.12c0,4.9-4.61,8.15-10.57,8.15-4.25,0-8.86-1.66-12.11-4.37Z"/>
  <path class="cls-2" d="M676.77,127.07v-20.44h-4.55v-1.71h4.55v-9.98h1.89v9.98h10.81v1.71h-10.81v20.26c0,4.37,2.3,6.56,6.2,6.56,1.48,0,2.95-.35,4.49-1.06v1.83c-1.48,.71-3.01,1-4.67,1-4.78,0-7.91-2.78-7.91-8.15Z"/>
  <path class="cls-3" d="M304.25,163.88s-.29,1.56-.6,2.73l-3.48,12.86h-2.16l-4.73-18.26h1.87l3.53,14.18c.23,.93,.42,1.95,.42,1.95h.05s.16-1.01,.42-1.95l3.84-14.18h1.71l3.85,14.18c.26,.93,.39,1.95,.42,1.95h.05s.18-1.01,.42-1.95l3.66-14.18h1.87l-4.86,18.26h-2.15l-3.48-12.86c-.31-1.17-.6-2.73-.6-2.73h-.05Z"/>
  <path class="cls-3" d="M323.53,166.09c3.61,0,5.45,2.78,5.45,6.03,0,.31-.05,.91-.05,.91h-10.03c.08,3.35,2.36,5.17,5.06,5.17,2.39,0,3.98-1.58,3.98-1.58l.8,1.35s-1.9,1.82-4.83,1.82c-3.9,0-6.83-2.81-6.83-6.83,0-4.29,2.91-6.86,6.44-6.86Zm3.66,5.48c-.1-2.73-1.77-4-3.71-4-2.18,0-4.08,1.38-4.5,4h8.21Z"/>
  <path class="cls-3" d="M339.87,161.2h1.79v16.65h8.47v1.61h-10.26v-18.26Z"/>
  <path class="cls-3" d="M358.34,166.09c3.61,0,5.45,2.78,5.45,6.03,0,.31-.05,.91-.05,.91h-10.03c.08,3.35,2.36,5.17,5.06,5.17,2.39,0,3.98-1.58,3.98-1.58l.8,1.35s-1.9,1.82-4.83,1.82c-3.9,0-6.83-2.81-6.83-6.83,0-4.29,2.91-6.86,6.44-6.86Zm3.66,5.48c-.1-2.73-1.77-4-3.71-4-2.18,0-4.08,1.38-4.5,4h8.21Z"/>
  <path class="cls-3" d="M374.11,171.39h.73v-.34c0-2.52-1.38-3.38-3.25-3.38-2.16,0-3.69,1.25-3.69,1.25l-.83-1.35s1.71-1.48,4.65-1.48c3.14,0,4.88,1.74,4.88,5.01v8.36h-1.69v-1.43c0-.65,.05-1.09,.05-1.09h-.05s-1.09,2.83-4.36,2.83c-2.18,0-4.44-1.27-4.44-3.87,0-4.42,5.74-4.52,8-4.52Zm-3.27,6.88c2.49,0,4-2.6,4-4.86v-.57h-.75c-2.05,0-6.16,.08-6.16,2.96,0,1.22,.96,2.47,2.91,2.47Z"/>
  <path class="cls-3" d="M380.69,166.4h1.74v2.31c0,.57-.05,1.04-.05,1.04h.05c.62-1.97,2.08-3.48,4.13-3.48,.36,0,.7,.08,.7,.08v1.74s-.31-.05-.65-.05c-1.84,0-3.22,1.46-3.79,3.38-.26,.83-.36,1.71-.36,2.55v5.51h-1.77v-13.07Z"/>
  <path class="cls-3" d="M390.94,166.4h1.74v1.95c0,.57-.05,1.04-.05,1.04h.05c.47-1.2,2.13-3.3,5.22-3.3s4.36,1.84,4.36,5.07v8.31h-1.77v-7.84c0-2.05-.31-3.87-2.83-3.87-2.24,0-4.16,1.53-4.75,3.69-.16,.55-.21,1.14-.21,1.77v6.26h-1.77v-13.07Z"/>
  <path class="cls-3" d="M417.96,162.81h-6.57v-1.61h14.91v1.61h-6.55v16.65h-1.79v-16.65Z"/>
  <path class="cls-3" d="M432.09,166.09c3.82,0,6.91,2.91,6.91,6.78s-3.09,6.91-6.91,6.91-6.91-2.96-6.91-6.91,3.09-6.78,6.91-6.78Zm0,12.1c2.81,0,5.09-2.28,5.09-5.32s-2.28-5.17-5.09-5.17-5.09,2.21-5.09,5.17,2.28,5.32,5.09,5.32Z"/>
  <path class="cls-3" d="M446.83,183.33c2.55,0,4.57-1.2,4.57-4.1v-1.2c0-.49,.05-.93,.05-.93h-.05c-.78,1.45-2.1,2.28-4.13,2.28-3.51,0-5.82-2.78-5.82-6.7s2.15-6.6,5.66-6.6,4.31,2.18,4.31,2.18h.05s-.03-.16-.03-.44v-1.43h1.71v12.75c0,4.16-3.06,5.77-6.26,5.77-1.51,0-3.01-.39-4.29-1.04l.67-1.46s1.61,.91,3.53,.91Zm4.6-10.65c0-3.82-1.82-4.99-4.13-4.99-2.55,0-4.03,1.84-4.03,4.96s1.69,5.14,4.29,5.14c2.05,0,3.87-1.27,3.87-5.12Z"/>
  <path class="cls-3" d="M462.96,166.09c3.61,0,5.45,2.78,5.45,6.03,0,.31-.05,.91-.05,.91h-10.03c.08,3.35,2.36,5.17,5.07,5.17,2.39,0,3.97-1.58,3.97-1.58l.8,1.35s-1.9,1.82-4.83,1.82c-3.9,0-6.83-2.81-6.83-6.83,0-4.29,2.91-6.86,6.44-6.86Zm3.66,5.48c-.1-2.73-1.77-4-3.71-4-2.18,0-4.08,1.38-4.49,4h8.21Z"/>
  <path class="cls-3" d="M472.29,168.03h-1.71v-1.48h1.74v-3.77h1.74v3.77h3.27v1.48h-3.27v6.49c0,3.07,1.95,3.46,2.94,3.46,.36,0,.6-.05,.6-.05v1.58s-.29,.05-.75,.05c-1.51,0-4.54-.49-4.54-4.86v-6.68Z"/>
  <path class="cls-3" d="M480.5,161.2h1.77v7.07c0,.6-.05,1.06-.05,1.06h.05c.49-1.25,2.24-3.25,5.2-3.25,3.22,0,4.36,1.84,4.36,5.07v8.31h-1.77v-7.84c0-2.05-.31-3.87-2.83-3.87-2.24,0-4.16,1.53-4.75,3.72-.16,.52-.21,1.12-.21,1.74v6.26h-1.77v-18.26Z"/>
  <path class="cls-3" d="M501.44,166.09c3.61,0,5.45,2.78,5.45,6.03,0,.31-.05,.91-.05,.91h-10.03c.08,3.35,2.36,5.17,5.07,5.17,2.39,0,3.97-1.58,3.97-1.58l.8,1.35s-1.9,1.82-4.83,1.82c-3.9,0-6.83-2.81-6.83-6.83,0-4.29,2.91-6.86,6.44-6.86Zm3.66,5.48c-.1-2.73-1.77-4-3.71-4-2.18,0-4.08,1.38-4.49,4h8.21Z"/>
  <path class="cls-3" d="M510.28,166.4h1.74v2.31c0,.57-.05,1.04-.05,1.04h.05c.62-1.97,2.08-3.48,4.13-3.48,.36,0,.7,.08,.7,.08v1.74s-.31-.05-.65-.05c-1.84,0-3.22,1.46-3.79,3.38-.26,.83-.36,1.71-.36,2.55v5.51h-1.77v-13.07Z"/>
  <path class="cls-3" d="M520.41,177.46h2v2h-2v-2Zm.05-16.26h1.82l-.08,13.48h-1.66l-.08-13.48Z"/>
  <g>
    <path class="cls-4" d="M175.18,134.66c.29-.68,.6-1.34,.88-2.04,.33-.83,.62-1.66,.9-2.5-1.54-.23-2.85-.44-3.82-.63-5.74,3.87-2.25,5.16,2.04,5.16Z"/>
    <path class="cls-4" d="M179.14,114.81c-.47,.45-.93,.9-1.36,1.36-1.28,1.36-.13,1.87,1.34,1.58,0-.26,.02-.52,.02-.79v-2.15Z"/>
    <path class="cls-4" d="M177.65,121.24c-3.79,1.4-2.9,2.92,.54,4.38,.35-1.6,.61-3.21,.76-4.82-.44,.15-.89,.29-1.3,.45Z"/>
    <path class="cls-4" d="M170.82,112.47c-.8,1.55-.2,3.63,2.97,1.59,1.17-.75,2.98-2.06,5.36-3.67v-10.06c-3.21,3.7-6.05,7.75-8.32,12.15Z"/>
    <path class="cls-4" d="M164.63,109.12s.43,3.87,2.92,.09c1-1.52,5.07-7.26,11.59-13.65v-14.1c-6.21,7.2-11.66,16.28-14.51,27.66Z"/>
    <path class="cls-4" d="M134.58,161.02c0-.25-.03-.4-.09-.4-.15,0-1.07,.67-1.28,3.33-1.08-1.11-1.79-2.32-2.02-3.61-1.11-.66-2.11-1.34-3.03-2.05,5.48-4.7,9.28-5.43,11.1-6.13-3.08-1.26-10.32,3.56-12.41,5.03-3.49-3.11-5.31-6.59-5.97-10.18,6.36-3.94,10.33-4.06,12.28-4.46-2.86-1.76-10.46,1.55-12.53,2.51-1.06-3.57-1.04-7.18,1.73-10.39,6.37-2.35,10.03-1.83,11.93-1.88-2.1-1.87-8.03-.74-11.18,.04,.36-4.32,3.24-7.81,6.23-10.43,5.34-.13,8.18,1.09,9.81,1.49-1.26-1.95-5.52-2.61-8.77-2.83,.72-3.38,4.4-6.99,6.71-7.26,5.74-.08,7.06,1.56,8.8,2.07-1.25-2.13-4.98-3.03-7.56-3.41,.3-2.59,4.18-4.91,5.23-6.54,5.42,.44,6.28,1.57,7.92,2.26-1-2.28-4.6-3.27-7.07-3.68,1.37-2.52,.95-3.3,.95-3.3,5.37-.9,6.63-2.64,7.63-4.62,2.09-4.13-2.28-7.87-2.28-7.87l-1.46,.52c5.93,3.78,.86,11.35-6.1,10.66-6.96-.69-11.88,4.94-14.59,5.78-2.71,.84-2.09,3.59-.33,5.2-2.84-.86-3.51-2.23-3.53-5.12,0-.77-.68-1.67-.99-2.82-.33-1.2,.2-2.2,1.26-3.04-1.25-1.34-1.67-4.18-.92-5.64,.15,2.32,1.65,3.73,2.84,4.5,4.5-2.08,12.24-2.93,14.22-3.75,2.97-1.23,3.93-3.86-4.58-7.86-8.51-4-17.67,2.71-17.67,2.71-1.81,.77-1.84,3.03-.3,5.01,0,0-.09,.26-.54,.09-2.07-.81-2.64-2.77-2.49-3.91-1.43,.13-3.25-.22-2.32-3.96-4.73-4.9,1.29-6.71,1.29-6.71-.83-3.16,2.75-7.31,6.96-6.67-5.53,2.28-.52,5.38-.52,5.38,0,0,11.09,.04,12.81-1.42,1.72-1.46,7.74-5.89,12.72-3.31-3.01,1.81-2.29,3.78-.09,3.96,0,0,2.6,.13,4.64-2.54,3.61-4.71,6.79-10.79,14.7-9.67-4.21,1.63-10.92,7.31-8.43,13.41,2.49,6.1,16.85-5.5,16.34-15.65,3.7,6.62-.34,21.24-17.02,25.36,9.79,5.95,1.33,19.53-2.8,30.89,.9,4.3,4.74,4.67,7.6,3.27,5.09-2.5,3.81-3.88,5.55-4.96,.77,2,.84,11.48-9.8,12.25-3.52,.26-3.08,2.54-.9,4.26,4.79,3.78,11.14,3.79,16.98,3.78,.36-.69,.73-1.38,1.07-2.1-7.87,.04-14.16-1.93-15.2-3.05,9.29,1.38,13.76-14.47,8.85-16.44-4.9-1.98-5.46,4.71-8.42,4.8-1.23-8.23,2.79-27.71,19.58-44.65v-30.84c0-1.59-.58-2.97-1.74-4.13-1.16-1.16-2.54-1.75-4.13-1.75h-28.88L62.31,124.62c.51,2.68,1.28,5.34,2.34,8,2.05,5.17,4.59,9.77,7.62,13.78,3.03,4.01,6.64,7.92,10.84,11.71,4.2,3.8,8.07,6.95,11.62,9.46,3.55,2.51,7.26,4.88,11.11,7.12,3.86,2.23,6.6,3.75,8.22,4.55,1.62,.8,2.92,1.41,3.9,1.84,.74,.37,1.53,.55,2.39,.55s1.65-.19,2.39-.55c.98-.43,2.28-1.04,3.9-1.84,1.62-.79,4.36-2.31,8.22-4.55,.14-.08,.29-.17,.43-.26-.45-4.08-3-7.84-.72-13.42Zm-14.36-66.58c4.19-5.59,10.88-7.65,18.61-4.37,.92,.47,3.96,2.28,1.38,3.2-.36,.13-12.93-3.71-18.23,2.5-5.3,6.21-15.49,9.17-19.25,5.54,4.92,1.25,13.76-1.89,17.5-6.88Zm.03,63.44s.66,7.49-4.53,8.83c2.18-1.71,1.48-7.72-.5-8.02-2.9-.44-3.02-3.7-5.69-3.8-2.67-.1-.6-2.02-4.18-1.98-3.58,.04,.56,5.83-3.1,6.84,.97,2.49-1.14,7.05-5.62,7.4,1.58-.61,4.2-4.95,2.34-7.12-2.45-.92-1.79-4.01,.19-6.51,1.74-2.19-.4-5.7-5.06-6.11-4.66-.41-2.66-6.53-4.42-7.78-1.76-1.25-5.38,.03-6.55,2.74-.65-1.36,1.74-4.42,2.94-4.84,.22-2.21,4.12-2.48,5.53,.02,.14,.43,.75,.18,.95-.05,1.2-3.09-4.64-4.92-3.78-7.15-1.05-1.94-3.7-3.42-7.14-1.03,1.85-3.62,7.37-3.23,10.06-.6,3.36,.22,1.08,2.84,4.42,4.85,1.96-.58,1.62-5.13-.16-6.62,2.24,.06,4.79,5.65,3.08,8.48,2.97,2.09,.97,4.18,.54,6.64-.43,2.46,.63,6.97,3.91,7.63,8.15,1.63,12.85-6.62,15.43-5.72,0,0,.69,8.34,4.9,11.39-1.46,3.08-3.58,2.52-3.58,2.52Z"/>
    <path class="cls-4" d="M135.83,79.87s4.36-.24,6.9,2.48c.52-1.02-2.8-4.84-2.8-4.84,0,0-3-.1-4.09,2.35Z"/>
    <path class="cls-4" d="M126.24,100.63c2.19,.3,2.15-1.12,2.15-1.12,0,0-.68-.22-1.5-.75-.75,.35-1.4,.72-1.93,1.14,.36,.39,.79,.66,1.28,.72Z"/>
    <path class="cls-1" d="M67.45,40.54c-1.59,0-2.97,.58-4.13,1.75-1.16,1.16-1.75,2.54-1.75,4.13v5.99l11.48-11.86h-5.6Z"/>
    <polygon class="cls-1" points="87.31 40.54 61.57 66.91 61.57 77.59 97.73 40.54 87.31 40.54"/>
    <polygon class="cls-1" points="113.13 40.54 61.57 93.36 61.57 108.35 127.86 40.54 113.13 40.54"/>
    <path class="cls-6" d="M124.05,94.27c-.76,1.46-.33,4.3,.92,5.64,.53-.42,1.18-.8,1.93-1.14-1.19-.77-2.69-2.18-2.84-4.5Z"/>
    <path class="cls-6" d="M118.93,143.96c-2.58-.9-7.29,7.35-15.43,5.72-3.28-.66-4.34-5.17-3.91-7.63,.43-2.46,2.43-4.56-.54-6.64,1.71-2.83-.84-8.42-3.08-8.48,1.79,1.49,2.12,6.05,.16,6.62-3.33-2.01-1.05-4.63-4.42-4.85-2.7-2.63-8.21-3.02-10.06,.6,3.43-2.39,6.09-.91,7.14,1.03-.87,2.23,4.98,4.05,3.78,7.15-.2,.24-.81,.48-.95,.05-1.41-2.5-5.3-2.23-5.53-.02-1.2,.42-3.59,3.47-2.94,4.84,1.16-2.71,4.79-3.99,6.55-2.74,1.75,1.25-.24,7.37,4.42,7.78,4.66,.41,6.8,3.92,5.06,6.11-1.98,2.5-2.64,5.59-.19,6.51,1.86,2.17-.76,6.52-2.34,7.12,4.48-.35,6.59-4.91,5.62-7.4,3.65-1.01-.49-6.79,3.1-6.84,3.58-.04,1.51,1.88,4.18,1.98,2.67,.1,2.79,3.36,5.69,3.8,1.98,.3,2.68,6.31,.5,8.02,5.18-1.34,4.53-8.83,4.53-8.83,0,0,2.12,.56,3.58-2.52-4.21-3.05-4.9-11.39-4.9-11.39Z"/>
    <path class="cls-6" d="M159.56,121.91c2.97-.09,3.52-6.77,8.42-4.8,4.9,1.98,.43,17.82-8.85,16.44,1.04,1.12,7.33,3.09,15.2,3.05,.3-.63,.58-1.3,.86-1.95-4.3,0-7.79-1.29-2.04-5.16,.98,.19,2.29,.4,3.82,.63,.5-1.5,.91-3,1.23-4.51-3.45-1.46-4.33-2.98-.54-4.38,.41-.15,.86-.3,1.3-.45,.1-1.01,.15-2.03,.17-3.05-1.47,.29-2.61-.22-1.34-1.58,.43-.46,.89-.91,1.36-1.36v-4.42c-2.38,1.61-4.19,2.92-5.36,3.67-3.16,2.04-3.76-.04-2.97-1.59,2.27-4.4,5.11-8.45,8.32-12.15v-4.77c-6.52,6.38-10.59,12.12-11.59,13.65-2.49,3.78-2.92-.09-2.92-.09,2.86-11.39,8.3-20.46,14.51-27.66v-4.19c-16.79,16.94-20.81,36.42-19.58,44.65Z"/>
    <path class="cls-6" d="M157.6,158.11c4.19-3.8,7.81-7.7,10.84-11.71,1.78-2.35,3.37-4.93,4.81-7.69-5.84,.02-12.19,0-16.98-3.78-2.18-1.72-2.61-4,.9-4.26,10.64-.77,10.58-10.25,9.8-12.25-1.74,1.08-.45,2.46-5.55,4.96-2.86,1.4-6.69,1.04-7.6-3.27,4.14-11.36,12.59-24.94,2.8-30.89,16.68-4.13,20.72-18.74,17.02-25.36,.52,10.14-13.84,21.75-16.34,15.65-2.49-6.1,4.21-11.78,8.43-13.41-7.91-1.12-11.09,4.96-14.7,9.67-2.04,2.67-4.64,2.54-4.64,2.54-2.2-.18-2.92-2.15,.09-3.96-4.99-2.58-11,1.85-12.72,3.31-1.72,1.46-12.81,1.42-12.81,1.42,0,0-5.02-3.1,.52-5.38-4.21-.64-7.79,3.51-6.96,6.67,0,0-6.02,1.81-1.29,6.71-.92,3.74,.89,4.08,2.32,3.96-.15,1.14,.42,3.1,2.49,3.91,.44,.17,.54-.09,.54-.09-1.54-1.98-1.5-4.23,.3-5.01,0,0,9.16-6.71,17.67-2.71,8.51,4,7.54,6.63,4.58,7.86-1.98,.82-9.72,1.67-14.22,3.75,.82,.53,1.5,.75,1.5,.75,0,0,.04,1.42-2.15,1.12-.49-.07-.92-.34-1.28-.72-1.06,.84-1.59,1.84-1.26,3.04,.31,1.14,.99,2.05,.99,2.82,.01,2.88,.69,4.26,3.53,5.12-1.76-1.61-2.38-4.37,.33-5.2,2.71-.84,7.62-6.47,14.59-5.78,6.96,.69,12.04-6.88,6.1-10.66l1.46-.52s4.37,3.73,2.28,7.87c-1,1.98-2.25,3.72-7.63,4.62,0,0,.43,.78-.95,3.3,2.47,.42,6.07,1.4,7.07,3.68-1.64-.7-2.51-1.83-7.92-2.26-1.06,1.62-4.93,3.94-5.23,6.54,2.58,.38,6.31,1.28,7.56,3.41-1.74-.51-3.06-2.15-8.8-2.07-2.31,.27-5.99,3.88-6.71,7.26,3.25,.22,7.51,.88,8.77,2.83-1.63-.4-4.48-1.62-9.81-1.49-2.99,2.62-5.86,6.11-6.23,10.43,3.16-.78,9.08-1.91,11.18-.04-1.89,.05-5.56-.47-11.93,1.88-2.78,3.21-2.79,6.82-1.73,10.39,2.07-.96,9.67-4.27,12.53-2.51-1.94,.4-5.91,.52-12.28,4.46,.66,3.59,2.48,7.07,5.97,10.18,2.1-1.47,9.34-6.29,12.41-5.03-1.82,.7-5.61,1.44-11.1,6.13,.91,.71,1.92,1.39,3.03,2.05,.23,1.29,.94,2.5,2.02,3.61,.21-2.66,1.13-3.33,1.28-3.33,.06,0,.09,.16,.09,.4-2.28,5.57,.27,9.34,.72,13.42,3.7-2.16,7.27-4.45,10.68-6.86,3.55-2.51,7.42-5.66,11.62-9.46Zm-14.88-75.76c-2.54-2.72-6.9-2.48-6.9-2.48,1.1-2.45,4.09-2.35,4.09-2.35,0,0,3.32,3.82,2.8,4.84Z"/>
    <path class="cls-6" d="M121.98,95.78c5.3-6.21,17.87-2.37,18.23-2.5,2.58-.92-.45-2.73-1.38-3.2-7.74-3.29-14.42-1.22-18.61,4.37-3.74,4.99-12.57,8.12-17.5,6.88,3.76,3.63,13.95,.67,19.25-5.54Z"/>
  </g>
  <line class="cls-5" x1="233.02" y1="20.12" x2="233.02" y2="192.34"/>
</svg>