<?xml version="1.0" encoding="utf-8"?>
<!-- Generator: Adobe Illustrator 27.0.0, SVG Export Plug-In . SVG Version: 6.00 Build 0)  -->
<svg version="1.1" id="Layer_1" xmlns="http://www.w3.org/2000/svg" xmlns:xlink="http://www.w3.org/1999/xlink" x="0px" y="0px"
	 viewBox="0 0 768 768" style="enable-background:new 0 0 768 768;" xml:space="preserve">
<style type="text/css">
	.st0{fill:#49155C;}
	.st1{fill:#E5A000;}
	.st2{fill:#FFFFFF;}
</style>
<g>
	<path class="st0" d="M689.66,758.06H78.28c-37.74,0-68.34-30.6-68.34-68.34V78.34C9.94,40.6,40.54,10,78.28,10h611.38
		C727.4,10,758,40.6,758,78.34v611.38C758,727.46,727.4,758.06,689.66,758.06z"/>
	<g>
		<path class="st1" d="M604.42,488.56c1.18-2.72,2.42-5.37,3.54-8.17c1.32-3.34,2.5-6.68,3.61-10.02
			c-6.17-0.92-11.43-1.78-15.36-2.53C573.16,483.38,587.16,488.54,604.42,488.56z"/>
		<path class="st1" d="M620.31,408.86c-1.89,1.81-3.73,3.62-5.45,5.46c-5.12,5.47-0.52,7.5,5.38,6.34c0.02-1.05,0.08-2.1,0.08-3.16
			V408.86z"/>
		<path class="st1" d="M614.34,434.69c-15.2,5.61-11.66,11.73,2.18,17.58c1.39-6.44,2.44-12.9,3.05-19.37
			C617.8,433.49,616,434.08,614.34,434.69z"/>
		<path class="st1" d="M586.89,399.47c-3.21,6.21-0.8,14.58,11.91,6.39c4.69-3.02,11.97-8.27,21.51-14.76v-40.41
			C607.43,365.55,596.01,381.81,586.89,399.47z"/>
		<path class="st1" d="M562.04,386.01c0,0,1.73,15.53,11.74,0.34c4.03-6.11,20.36-29.16,46.54-54.8v-56.64
			C595.36,303.85,573.51,340.29,562.04,386.01z"/>
		<path class="st1" d="M441.36,594.43c-0.01-1-0.11-1.61-0.36-1.62c-0.6-0.01-4.29,2.69-5.15,13.38c-4.33-4.44-7.19-9.31-8.11-14.49
			c-4.45-2.64-8.49-5.39-12.15-8.22c22.02-18.85,37.25-21.81,44.56-24.62c-12.35-5.06-41.43,14.31-49.84,20.21
			c-14.02-12.49-21.31-26.48-23.97-40.88c25.55-15.82,41.49-16.29,49.3-17.9c-11.5-7.08-42.01,6.21-50.31,10.06
			c-4.25-14.34-4.19-28.85,6.96-41.74c25.58-9.43,40.29-7.33,47.89-7.53c-8.43-7.51-32.23-2.98-44.91,0.15
			c1.46-17.33,13.01-31.37,25.01-41.88c21.44-0.51,32.87,4.36,39.41,5.98c-5.06-7.84-22.18-10.5-35.23-11.37
			c2.89-13.56,17.65-28.06,26.93-29.14c23.05-0.3,28.37,6.25,35.34,8.31c-5-8.55-19.98-12.18-30.34-13.69
			c1.21-10.41,16.77-19.73,21.02-26.25c21.75,1.75,25.23,6.3,31.82,9.09c-4.03-9.15-18.46-13.12-28.39-14.79
			c5.51-10.12,3.8-13.25,3.8-13.25c21.58-3.63,26.61-10.62,30.62-18.56c8.39-16.6-9.15-31.59-9.15-31.59l-5.87,2.07
			c23.82,15.19,3.45,45.57-24.51,42.81c-27.97-2.76-47.7,19.84-58.58,23.21c-10.88,3.37-8.4,14.43-1.32,20.9
			c-11.39-3.45-14.1-8.96-14.16-20.54c-0.01-3.09-2.71-6.72-3.97-11.31c-1.32-4.84,0.81-8.85,5.06-12.23
			c-5.02-5.39-6.71-16.78-3.68-22.64c0.61,9.31,6.62,14.98,11.42,18.06c18.06-8.36,49.17-11.76,57.11-15.06
			c11.91-4.94,15.8-15.52-18.38-31.57c-34.18-16.05-70.95,10.88-70.95,10.88c-7.25,3.11-7.38,12.17-1.21,20.11
			c0,0-0.38,1.04-2.16,0.35c-8.32-3.27-10.62-11.13-10.01-15.71c-5.76,0.51-13.03-0.86-9.32-15.88
			c-18.99-19.68,5.18-26.93,5.18-26.93c-3.32-12.69,11.05-29.34,27.96-26.77c-22.22,9.17-2.07,21.59-2.07,21.59
			s44.54,0.17,51.44-5.7c6.9-5.87,31.07-23.65,51.1-13.29c-12.08,7.25-9.19,15.17-0.35,15.88c0,0,10.45,0.52,18.64-10.19
			c14.49-18.91,27.28-43.33,59.04-38.84c-16.92,6.56-43.85,29.34-33.83,53.86c10.01,24.51,67.67-22.1,65.6-62.84
			c14.85,26.58-1.38,85.28-68.36,101.85c39.3,23.89,5.35,78.41-11.26,124.04c3.63,17.28,19.04,18.75,30.51,13.11
			c20.44-10.05,15.29-15.6,22.27-19.94c3.11,8.03,3.37,46.09-39.36,49.2c-14.12,1.03-12.36,10.19-3.62,17.09
			c19.25,15.2,44.74,15.24,68.19,15.17c1.46-2.79,2.94-5.56,4.32-8.45c-31.59,0.17-56.85-7.75-61.03-12.25
			c37.29,5.52,55.24-58.09,35.56-66.03c-19.68-7.94-21.92,18.92-33.83,19.26c-4.92-33.05,11.22-111.26,78.65-179.3V134.22
			c0-6.4-2.34-11.93-7-16.6c-4.68-4.67-10.21-7.01-16.6-7.01H480.75l-329.6,337.66c2.06,10.75,5.16,21.46,9.38,32.11
			c8.23,20.78,18.44,39.22,30.61,55.33c12.17,16.11,26.68,31.79,43.52,47.03c16.85,15.25,32.4,27.91,46.66,37.99
			c14.26,10.08,29.14,19.61,44.63,28.58c15.49,8.97,26.5,15.07,33.01,18.26c6.52,3.2,11.74,5.66,15.67,7.37
			c2.95,1.48,6.15,2.22,9.59,2.22c3.45,0,6.64-0.74,9.6-2.22c3.93-1.72,9.16-4.17,15.67-7.37c6.51-3.19,17.53-9.29,33.02-18.26
			c0.58-0.34,1.15-0.69,1.72-1.02C442.45,631.94,432.19,616.81,441.36,594.43z M383.71,327.07c16.83-22.44,43.67-30.73,74.75-17.53
			c3.71,1.91,15.88,9.16,5.53,12.87c-1.46,0.52-51.93-14.89-73.22,10.03c-21.29,24.93-62.2,36.84-77.31,22.25
			C333.22,359.7,368.69,347.09,383.71,327.07z M383.83,581.81c0,0,2.64,30.1-18.18,35.47c8.77-6.87,5.95-31-2.02-32.21
			c-11.65-1.77-12.14-14.86-22.86-15.28c-10.72-0.41-2.41-8.13-16.8-7.95c-14.39,0.18,2.24,23.39-12.43,27.45
			c3.88,10.01-4.57,28.31-22.57,29.71c6.35-2.44,16.88-19.87,9.41-28.6c-9.84-3.7-7.18-16.12,0.78-26.14
			c6.99-8.8-1.61-22.88-20.32-24.54c-18.71-1.66-10.7-26.23-17.74-31.26c-7.05-5.04-21.62,0.13-26.28,11
			c-2.59-5.47,6.99-17.73,11.81-19.42c0.89-8.87,16.54-9.97,22.19,0.09c0.56,1.73,3.01,0.74,3.8-0.22
			c4.83-12.42-18.65-19.76-15.16-28.7c-4.21-7.8-14.88-13.72-28.66-4.14c7.44-14.54,29.58-12.99,40.42-2.42
			c13.5,0.86,4.36,11.39,17.73,19.47c7.87-2.31,6.52-20.59-0.65-26.59c9,0.24,19.24,22.68,12.38,34.05
			c11.93,8.38,3.89,16.79,2.18,26.68c-1.72,9.89,2.53,27.99,15.71,30.64c32.71,6.56,51.61-26.58,61.97-22.96
			c0,0,2.76,33.49,19.66,45.75C392.33,584.06,383.83,581.81,383.83,581.81z"/>
		<path class="st1" d="M446.38,268.55c0,0,17.52-0.95,27.71,9.97c2.07-4.1-11.26-19.42-11.26-19.42S450.78,258.71,446.38,268.55z"/>
		<path class="st1" d="M407.88,351.93c8.8,1.21,8.63-4.49,8.63-4.49s-2.72-0.89-6.02-3c-3,1.39-5.63,2.91-7.74,4.59
			C404.2,350.58,405.91,351.66,407.88,351.93z"/>
		<path class="st2" d="M171.8,110.62c-6.4,0-11.93,2.33-16.6,7.01c-4.67,4.67-7.01,10.2-7.01,16.6v24.04l46.09-47.65H171.8z"/>
		<polygon class="st2" points="251.57,110.62 148.18,216.53 148.18,259.39 293.41,110.62 		"/>
		<polygon class="st2" points="355.23,110.62 148.18,322.73 148.18,382.91 414.39,110.62 		"/>
		<path class="st0" d="M399.08,326.38c-3.03,5.86-1.34,17.26,3.68,22.64c2.11-1.68,4.75-3.2,7.74-4.59
			C405.7,341.36,399.69,335.69,399.08,326.38z"/>
		<path class="st0" d="M378.53,525.93c-10.36-3.62-29.26,29.52-61.97,22.96c-13.18-2.65-17.43-20.75-15.71-30.64
			c1.71-9.89,9.75-18.3-2.18-26.68c6.87-11.37-3.37-33.81-12.38-34.05c7.17,6,8.53,24.28,0.65,26.59
			c-13.38-8.07-4.23-18.6-17.73-19.47c-10.84-10.57-32.98-12.13-40.42,2.42c13.78-9.58,24.45-3.66,28.66,4.14
			c-3.49,8.94,19.99,16.28,15.16,28.7c-0.79,0.96-3.24,1.94-3.8,0.22c-5.65-10.06-21.3-8.96-22.19-0.09
			c-4.82,1.69-14.41,13.95-11.81,19.42c4.66-10.87,19.24-16.04,26.28-11c7.04,5.03-0.97,29.6,17.74,31.26
			c18.71,1.66,27.31,15.74,20.32,24.54c-7.96,10.02-10.62,22.44-0.78,26.14c7.47,8.73-3.06,26.16-9.41,28.6
			c18-1.4,26.46-19.7,22.57-29.71c14.67-4.06-1.96-27.27,12.43-27.45c14.39-0.18,6.08,7.54,16.8,7.95
			c10.72,0.41,11.21,13.5,22.86,15.28c7.96,1.21,10.78,25.34,2.02,32.21c20.82-5.37,18.18-35.47,18.18-35.47s8.5,2.25,14.36-10.12
			C381.3,559.42,378.53,525.93,378.53,525.93z"/>
		<path class="st0" d="M541.67,437.38c11.91-0.35,14.15-27.2,33.83-19.26c19.68,7.94,1.73,71.56-35.56,66.03
			c4.17,4.5,29.44,12.43,61.03,12.25c1.21-2.54,2.32-5.21,3.46-7.84c-17.26-0.02-31.27-5.19-8.21-20.73
			c3.92,0.75,9.18,1.61,15.36,2.53c2-6.02,3.64-12.05,4.95-18.1c-13.84-5.85-17.39-11.97-2.18-17.58c1.66-0.61,3.46-1.2,5.23-1.79
			c0.39-4.07,0.58-8.15,0.66-12.24c-5.9,1.16-10.5-0.87-5.38-6.34c1.72-1.84,3.57-3.66,5.45-5.46v-17.75
			c-9.54,6.49-16.82,11.74-21.51,14.76c-12.71,8.19-15.12-0.18-11.91-6.39c9.12-17.67,20.53-33.93,33.42-48.78v-19.14
			c-26.18,25.64-42.51,48.69-46.54,54.8c-10.01,15.19-11.74-0.34-11.74-0.34c11.47-45.72,33.32-82.16,58.28-111.09v-16.84
			C552.89,326.12,536.74,404.33,541.67,437.38z"/>
		<path class="st0" d="M533.82,582.75c16.84-15.24,31.35-30.92,43.52-47.03c7.14-9.45,13.52-19.81,19.31-30.87
			c-23.45,0.07-48.94,0.03-68.19-15.17c-8.74-6.9-10.5-16.06,3.62-17.09c42.73-3.11,42.47-41.17,39.36-49.2
			c-6.98,4.34-1.83,9.88-22.27,19.94c-11.47,5.64-26.88,4.17-30.51-13.11c16.61-45.63,50.56-100.15,11.26-124.04
			c66.98-16.57,83.21-75.26,68.36-101.85c2.07,40.74-55.59,87.35-65.6,62.84c-10.01-24.51,16.92-47.3,33.83-53.86
			c-31.76-4.49-44.55,19.93-59.04,38.84c-8.2,10.7-18.64,10.19-18.64,10.19c-8.84-0.71-11.74-8.63,0.35-15.88
			c-20.02-10.36-44.19,7.42-51.1,13.29c-6.91,5.87-51.44,5.7-51.44,5.7s-20.15-12.43,2.07-21.59
			c-16.91-2.57-31.29,14.08-27.96,26.77c0,0-24.17,7.25-5.18,26.93c-3.71,15.02,3.56,16.4,9.32,15.88
			c-0.6,4.57,1.69,12.44,10.01,15.71c1.78,0.7,2.16-0.35,2.16-0.35c-6.17-7.94-6.04-17,1.21-20.11c0,0,36.77-26.93,70.95-10.88
			c34.18,16.06,30.29,26.63,18.38,31.57c-7.95,3.29-39.05,6.7-57.11,15.06c3.3,2.11,6.02,3,6.02,3s0.17,5.7-8.63,4.49
			c-1.97-0.27-3.68-1.35-5.13-2.91c-4.25,3.38-6.38,7.39-5.06,12.23c1.26,4.58,3.96,8.21,3.97,11.31
			c0.06,11.58,2.76,17.09,14.16,20.54c-7.08-6.47-9.55-17.53,1.32-20.9c10.88-3.37,30.61-25.97,58.58-23.21
			c27.96,2.76,48.33-27.62,24.51-42.81l5.87-2.07c0,0,17.54,15,9.15,31.59c-4.01,7.94-9.05,14.93-30.62,18.56
			c0,0,1.71,3.14-3.8,13.25c9.93,1.67,24.36,5.64,28.39,14.79c-6.59-2.8-10.07-7.34-31.82-9.09c-4.25,6.52-19.8,15.84-21.02,26.25
			c10.36,1.51,25.34,5.14,30.34,13.69c-6.97-2.06-12.29-8.61-35.34-8.31c-9.28,1.08-24.04,15.59-26.93,29.14
			c13.05,0.87,30.17,3.53,35.23,11.37c-6.54-1.62-17.97-6.49-39.41-5.98c-12,10.51-23.55,24.55-25.01,41.88
			c12.68-3.13,36.48-7.66,44.91-0.15c-7.6,0.2-22.32-1.9-47.89,7.53c-11.15,12.89-11.21,27.4-6.96,41.74
			c8.3-3.85,38.81-17.14,50.31-10.06c-7.81,1.61-23.75,2.08-49.3,17.9c2.66,14.4,9.95,28.39,23.97,40.88
			c8.42-5.9,37.49-25.27,49.84-20.21c-7.31,2.8-22.54,5.76-44.56,24.62c3.66,2.83,7.7,5.58,12.15,8.22
			c0.93,5.18,3.78,10.05,8.11,14.49c0.86-10.69,4.55-13.39,5.15-13.38c0.25,0.01,0.35,0.62,0.36,1.62
			c-9.17,22.38,1.09,37.5,2.89,53.87c14.86-8.67,29.18-17.85,42.9-27.55C501.42,610.66,516.97,598.01,533.82,582.75z M474.08,278.52
			c-10.19-10.92-27.71-9.97-27.71-9.97c4.4-9.84,16.44-9.45,16.44-9.45S476.15,274.42,474.08,278.52z"/>
		<path class="st0" d="M390.76,332.44c21.29-24.92,71.77-9.51,73.22-10.03c10.36-3.71-1.81-10.96-5.53-12.87
			c-31.07-13.2-57.91-4.91-74.75,17.53c-15.02,20.02-50.49,32.63-70.26,27.62C328.56,369.28,369.47,357.36,390.76,332.44z"/>
	</g>
</g>
</svg>
